<svg id="Laag_1" data-name="Laag 1" xmlns="http://www.w3.org/2000/svg" viewBox="0 0 1920 218.19"><defs><style>.cls-1{fill:#fff;}</style></defs><path id="Header_background" data-name="Header background" class="cls-1" d="M.11,429.57h1920v218S1886.87,616,1817,614.72c-66.69-1.19-80.94,33.53-118.88,32.85-38.83-.69-62.73-32-109.42-32.85-37.14-.66-85.52,25.41-126.46,24.68-40.26-.71-55.87-33.72-98.81-34.48-33.62-.6-71.62,35.1-106.64,34.48-39-.69-85.9-33.78-125.87-34.48-38.36-.68-57.76,43.32-95.7,42.65-37.7-.67-72.83-32.19-110.57-32.85-20.13-.35-58.16,29.35-88,32.85-26.32,3.08-54.87-32.54-72.4-32.85-37.32-.65-85,33.46-120.11,32.85s-37.83-31.86-94.69-32.85c-55-1-60.57,33.45-95.71,32.85-37.14-.64-51.36-31.79-114-32.85C297.84,614,250.32,648.1,218,647.57c-70.45-1.16-56.44-29.56-105-31.37C56.82,616.2.11,647.57.11,647.57Z" transform="translate(-0.11 -429.57)"/></svg>