<?xml version="1.0" encoding="utf-8"?>
<!-- Generator: Adobe Illustrator 24.1.0, SVG Export Plug-In . SVG Version: 6.00 Build 0)  -->
<svg version="1.1" id="Laag_1" xmlns="http://www.w3.org/2000/svg" xmlns:xlink="http://www.w3.org/1999/xlink" x="0px" y="0px"
	 viewBox="0 0 1920 1080" style="enable-background:new 0 0 1920 1080;" xml:space="preserve">
<style type="text/css">
	.st0{fill:#8E7957;}
</style>
<g id="logo" transform="translate(-888 -20.246)">
	<g id="Group_1" transform="translate(888 20.246)">
		<g id="g22" transform="translate(13.339 77.059)">
			<path id="path4" class="st0" d="M481.72,529.23h21.37c2.81,0.05,5.61,0.33,8.38,0.84c2.65,0.54,5.19,1.53,7.51,2.93
				c2.21,1.37,4.07,3.23,5.44,5.44c1.51,2.37,2.25,5.15,2.09,7.95c0.12,3.64-1.07,7.21-3.35,10.05c-2.24,2.74-5.34,4.66-8.79,5.44
				l0,0c2.18,0.16,4.31,0.73,6.28,1.68c1.99,0.76,3.73,2.07,5.03,3.77c1.36,1.66,2.48,3.49,3.35,5.45c0.82,1.99,1.24,4.13,1.25,6.28
				c0.12,3.39-0.75,6.73-2.51,9.63c-1.55,2.47-3.71,4.48-6.28,5.86c-2.66,1.66-5.67,2.66-8.79,2.93c-3.19,0.49-6.41,0.77-9.63,0.84
				h-20.93v-69.08H481.72z M489.67,558.55h11.31c1.96,0.07,3.93-0.07,5.86-0.42c1.73-0.37,3.42-0.93,5.03-1.68
				c1.44-0.89,2.72-2.02,3.77-3.35c1.25-1.25,1.25-3.35,1.25-5.86c0.03-1.89-0.4-3.76-1.25-5.44c-0.9-1.32-2.03-2.45-3.35-3.35
				c-1.55-0.87-3.26-1.44-5.03-1.68c-1.79-0.35-3.62-0.49-5.44-0.42h-12.13L489.67,558.55z M489.67,590.8h13.82
				c1.98-0.05,3.95-0.33,5.86-0.84c1.9-0.44,3.73-1.15,5.44-2.09c1.64-0.8,2.96-2.13,3.77-3.77c1.05-1.78,1.63-3.79,1.68-5.86
				c0.07-2.16-0.35-4.31-1.25-6.28c-0.8-1.64-2.13-2.96-3.77-3.77c-1.71-0.94-3.54-1.65-5.44-2.09c-2.07-0.35-4.18-0.49-6.28-0.42
				h-14.27v25.13h0.42L489.67,590.8z"/>
			<path id="path6" class="st0" d="M557.52,529.23h17.59c3.36-0.07,6.71,0.07,10.05,0.42c3.05,0.34,6.03,1.19,8.79,2.52
				c2.57,1.38,4.73,3.39,6.28,5.86c4.01,7.4,3.18,16.48-2.09,23.03c-3.51,3.42-8.1,5.49-12.98,5.86l19.68,32.25h-9.64l-18.84-31.41
				h-10.47v31.41h-8.38V529.23z M565.89,559.8h14.66c2.29,0.03,4.57-0.4,6.7-1.25c4.44-1.26,7.4-5.45,7.12-10.06
				c0.22-2.1-0.38-4.19-1.68-5.86c-0.82-1.52-2.16-2.71-3.77-3.35c-1.73-0.81-3.56-1.37-5.44-1.68c-1.94-0.33-3.9-0.47-5.86-0.42
				h-11.73V559.8z"/>
			<path id="path8" class="st0" d="M663.05,600.41c-5.04,0.12-10.05-0.88-14.66-2.93c-4.35-1.5-8.24-4.08-11.31-7.51
				c-3.35-3.3-5.92-7.31-7.51-11.73c-3.35-9.49-3.35-19.83,0-29.32c1.59-4.42,4.16-8.43,7.51-11.73c3.21-3.26,7.06-5.83,11.31-7.54
				c4.67-1.85,9.63-2.84,14.66-2.93c5.04-0.12,10.05,0.88,14.66,2.93c4.35,1.51,8.25,4.1,11.31,7.54c3.35,3.3,5.92,7.3,7.51,11.73
				c3.35,9.49,3.35,19.83,0,29.32c-1.59,4.42-4.16,8.43-7.51,11.73c-3.22,3.25-7.06,5.81-11.31,7.51
				C673.09,599.5,668.09,600.5,663.05,600.41z M663.05,592.9c3.86-0.01,7.69-0.72,11.31-2.09c3.25-1.6,6.22-3.72,8.79-6.28
				c2.43-2.74,4.41-5.85,5.86-9.21c2.79-7.28,2.79-15.34,0-22.62c-1.3-3.44-3.29-6.58-5.86-9.21c-2.57-2.56-5.54-4.68-8.79-6.28
				c-3.55-1.57-7.43-2.29-11.31-2.09c-3.86,0.01-7.69,0.71-11.31,2.09c-3.25,1.6-6.22,3.72-8.79,6.28c-2.44,2.65-4.3,5.79-5.44,9.21
				c-2.79,7.28-2.79,15.34,0,22.62c2.35,6.94,7.52,12.57,14.24,15.49c3.61,1.36,7.44,2.06,11.3,2.06V592.9z"/>
			<path id="path10" class="st0" d="M779.48,573.19c-0.11,3.27-0.68,6.51-1.68,9.63c-0.86,3.24-2.44,6.25-4.62,8.8
				c-2.18,2.63-4.89,4.77-7.95,6.28c-7.74,3.34-16.52,3.34-24.26,0c-3.07-1.51-5.78-3.65-7.95-6.28c-2.19-2.55-3.77-5.55-4.62-8.8
				c-0.86-3.56-1.28-7.22-1.26-10.88V528.8h8.38v41.88c0.05,2.67,0.33,5.33,0.84,7.95c0.54,2.53,1.53,4.94,2.93,7.12
				c1.39,2.09,3.25,3.81,5.44,5.03c2.73,1.32,5.77,1.89,8.79,1.67c3.02,0.13,6.03-0.44,8.79-1.67c2.19-1.22,4.06-2.94,5.44-5.03
				c1.47-2.14,2.47-4.56,2.93-7.12c0.49-2.63,0.77-5.29,0.84-7.95V528.8h8.38v43.14L779.48,573.19z"/>
			<path id="path12" class="st0" d="M802.51,529.23h9.21l15.92,57.77l0,0l17.17-57.77h9.21l17.17,57.77l0,0l15.92-57.77h8.79
				l-20.51,69.52h-8.8l-17.17-59.05l0,0l-17.17,59.05h-9.21L802.51,529.23z"/>
			<path id="path14" class="st0" d="M919.35,529.23h43.55v7.51h-35.59v21.78h33.08v7.51h-33.08v24.71h37.26v7.51h-45.64v-69.02
				H919.35z"/>
			<path id="path16" class="st0" d="M990.96,529.23h17.59c3.35-0.07,6.71,0.07,10.05,0.42c3.05,0.34,6.03,1.19,8.8,2.52
				c2.57,1.38,4.73,3.39,6.28,5.86c4.01,7.4,3.18,16.48-2.09,23.03c-3.51,3.42-8.1,5.49-12.99,5.86l19.68,32.25h-10.05l-18.84-31.41
				h-10.47v31.41h-8.38v-69.94H990.96z M999.34,559.8h14.66c2.29,0.03,4.57-0.4,6.7-1.25c4.44-1.26,7.4-5.45,7.12-10.06
				c0.22-2.09-0.38-4.19-1.67-5.86c-0.82-1.52-2.16-2.71-3.77-3.35c-1.73-0.81-3.56-1.37-5.44-1.68c-1.94-0.33-3.9-0.47-5.86-0.42
				h-11.73L999.34,559.8L999.34,559.8z"/>
			<path id="path18" class="st0" d="M1065.09,529.23h8.38v69.52h-8.38V529.23z"/>
			<path id="path20" class="st0" d="M1135.04,580.73c-0.07,2.39-0.35,4.77-0.84,7.12c-0.6,2.33-1.75,4.48-3.35,6.28
				c-1.72,1.99-3.87,3.57-6.28,4.62c-2.9,1.28-6.05,1.85-9.21,1.68c-4.36,0.23-8.67-1.1-12.13-3.77c-3.51-2.79-5.77-6.85-6.28-11.31
				l8.38-1.68c0.33,2.55,1.51,4.91,3.35,6.7c1.94,1.75,4.5,2.66,7.12,2.52c2.03,0.08,4.04-0.35,5.86-1.25
				c1.41-0.78,2.57-1.95,3.35-3.36c0.81-1.44,1.38-3,1.68-4.62c0.35-1.79,0.49-3.62,0.42-5.44v-48.58h8.38v51.09L1135.04,580.73z"/>
		</g>
		<path id="path24" class="st0" d="M511.81,714.32l-51.93,56.12l56.54,59.05v1.25h-27.22l-49-51.93v51.95H418V713.49h22.19v49.84
			l44.39-49.42h27.64v0.42L511.81,714.32z"/>
		<path id="path26" class="st0" d="M653.77,830.77h-18.84l-14.66-36.85l-12.54-36.87l-12.13,37.27l-14.27,36.45h-18.84L519.34,713.5
			h24.71l27.64,84.6l28.48-84.6h14.24l29.32,84.6l26.79-84.6h24.71L653.77,830.77z"/>
		<path id="path28" class="st0" d="M780.25,808.55h-61.14l-10.05,22.19h-23.87l52.77-117.27h24.26l52.77,117.27h-24.26
			L780.25,808.55z M749.68,738.19l-21.78,49.84h43.55L749.68,738.19z"/>
		<path id="path30" class="st0" d="M926.41,830.77h-26.38l-34.34-39.36h-21.37v39.36h-22.18V713.5h55.7
			c27.64,0,42.3,18.43,42.3,38.95c1.12,18.13-11.78,34.12-29.74,36.85l35.6,40.2v1.25L926.41,830.77z M844.75,734.03v37.69h33.51
			c9.95,1.1,18.91-6.08,20.01-16.04c0.1-0.93,0.13-1.87,0.09-2.81c0.19-10.25-7.97-18.72-18.22-18.91
			c-0.63-0.01-1.26,0.01-1.88,0.06L844.75,734.03z"/>
		<path id="path32" class="st0" d="M964.1,733.59h-37.27v-20.1h96.32v20.1h-37.27v97.17h-22.19v-97.17H964.1z"/>
		<path id="path34" class="st0" d="M1116.53,780.91c0,30.15-19.27,52.35-51.51,52.35c-30.15,0-51.51-18.01-51.51-51.09h21.78
			c0,20.1,9.63,30.15,29.73,30.15s29.32-13.82,29.32-31.83v-46.48h-35.19v-20.51h57.38L1116.53,780.91z"/>
		<path id="path36" class="st0" d="M1225,830.76h-87.95V713.49H1225v21.37h-65.75v26.8h63.66v20.52h-63.66v26.38h65.75L1225,830.76z
			"/>
		<rect id="rect38" x="418.84" y="637.27" class="st0" width="49" height="7.12"/>
		<rect id="rect40" x="1175.58" y="637.27" class="st0" width="48.99" height="7.12"/>
	</g>
	<path id="path2" class="st0" d="M1729.22,568.32L1729.22,568.32c44.65-4.54,86.37-24.37,118.07-56.14l0,0
		c76.21-75.8,76.54-199.03,0.73-275.24c-0.11-0.11-0.21-0.21-0.32-0.32v-0.39c-31.65-31.84-73.39-51.69-118.07-56.12l0,0
		c-2.93-0.42-5.86-0.42-8.8-0.84h-1.25c-3.35,0-6.7-0.42-10.05-0.42l0,0c-57.75-0.04-112.52,25.59-149.51,69.94l-1.25,1.25
		l-0.42,0.42c-5.91,7.09-11.24,14.66-15.92,22.62c-0.23,0.23-0.37,0.52-0.42,0.84c-14.92,24.57-24.08,52.21-26.8,80.82
		c0.07,1.27-0.07,2.54-0.42,3.77c-0.42,5.44-0.84,10.47-0.84,15.92l0,0c0.1,107.74,87.41,195.05,195.14,195.17l0,0
		c3.36,0.07,6.71-0.07,10.05-0.42h1.25C1723.38,569.08,1726.31,568.8,1729.22,568.32z M1732.57,530.19
		c-2.09,0.42-4.19,0.42-6.28,0.84h-2.09c-1.68,0-3.77,0.42-5.45,0.42h-9.64c-86.94-0.05-157.4-70.51-157.46-157.44
		c-0.08-7.43,0.48-14.86,1.68-22.19c-0.06-0.59,0.08-1.18,0.42-1.68c0-1.25,0.42-2.09,0.42-3.35c0.42-1.68,0.42-2.93,0.84-4.62
		c2.22-11.12,5.73-21.94,10.47-32.24c25.32-56.95,81.75-93.69,144.07-93.8h9.63c2.09,0,3.77,0.42,5.86,0.42h2.11
		c2.09,0.42,4.19,0.42,6.28,0.84h0.84c26.64,4.1,51.76,15.07,72.87,31.83l-123.97,123.97l123.96,123.96
		c-21.68,17.09-47.3,28.46-74.52,33.08c-0.84,0.84,0.4,0-0.02,0V530.19z M1833.09,471.56l-97.17-97.14l97.16-97.16
		c21.82,27.7,33.76,61.89,33.92,97.16c0.04,35.3-11.92,69.56-33.92,97.16L1833.09,471.56z"/>
</g>
</svg>
