<svg id="Laag_1" data-name="Laag 1" xmlns="http://www.w3.org/2000/svg" xmlns:xlink="http://www.w3.org/1999/xlink" viewBox="0 0 1920 945.64"><defs><style>.cls-1{fill:#fff;}.cls-2{fill:url(#Naamloos_verloop_2);}.cls-3{isolation:isolate;}.cls-4{fill:#8e7957;}</style><linearGradient id="Naamloos_verloop_2" x1="0.65" y1="1081.61" x2="0.65" y2="1080.61" gradientTransform="matrix(493.9, 0, 0, -493.93, 759.62, 534465.61)" gradientUnits="userSpaceOnUse"><stop offset="0" stop-color="#8e7957"/><stop offset="0.53" stop-color="#9f895f"/><stop offset="0.79" stop-color="#fff"/><stop offset="1" stop-color="#fff"/></linearGradient></defs><path id="Path_2" data-name="Path 2" class="cls-1" d="M118.89-58.78h1920V849.34s-68.42,66.77-188.72,22.17S1705.57,736,1565.17,736s-155,68.7-298.84,113.3S1135.25,723.87,983.21,723.87,843.79,857,685,871.51s-198.23-168.61-339-160.83-227,138.66-227,138.66Z" transform="translate(-118.89 58.78)"/><path id="path2" class="cls-2" d="M1104.51,717.19h0a246,246,0,0,0,149.28-70.93h0a246,246,0,0,0,.53-348.33v-.53A244.44,244.44,0,0,0,1105,226.47h0c-3.71-.53-7.42-.53-11.13-1.06h-1.58c-4.24,0-8.47-.53-12.7-.53h0a245.86,245.86,0,0,0-189,88.4l-1.59,1.59-.53.53A213.08,213.08,0,0,0,868.41,344a1.82,1.82,0,0,0-.53,1.06C849.35,375.22,837.7,410.16,834,447.21a14.77,14.77,0,0,1-.53,4.77c-.53,6.88-1.06,13.23-1.06,20.11h0c0,136.05,110.64,246.7,246.69,246.7h0a101.65,101.65,0,0,0,12.7-.54h1.58A79.86,79.86,0,0,0,1104.51,717.19Zm4.23-48.17c-2.64.52-5.29.52-7.94,1.05h-2.64c-2.12,0-4.77.53-6.89.53h-12.18c-110.11,0-199-89.45-199-199a161.8,161.8,0,0,1,2.12-28.06,3.16,3.16,0,0,1,.52-2.11c0-1.59.53-2.65.53-4.24.53-2.12.53-3.71,1.06-5.83,2.65-14.29,7.41-27.52,13.24-40.75C928.75,320.69,998.63,272,1079.62,272h12.17c2.65,0,4.76.53,7.41.53h2.64c2.65.53,5.3.53,8,1.06h1A196.08,196.08,0,0,1,1203,313.81L1046.28,470.5,1203,627.2c-26.47,20.64-59.82,36.52-94.23,41.82-1.06,1.06.53,0,0,0Zm127-74.12L1113,472.09l122.81-122.81c26.47,33.88,42.88,76.76,42.88,122.81a196.66,196.66,0,0,1-42.88,122.81Z" transform="translate(-118.89 58.78)"/><g id="Welkom" class="cls-3"><g class="cls-3"><path class="cls-4" d="M784.89,713c-11.4,28.6-32.2,79-32.2,79l-35.6-54-35.6,53.8s-20.2-51.2-31.8-79.6c-10.4-25.4-28-66.6-28-66.6l58.4-7,10.2,33.6,27.2-42.4,28,42.6,10-33.8,57,7.2S795.29,687.22,784.89,713Z" transform="translate(-118.89 58.78)"/><path class="cls-4" d="M879.89,691l.19,10.8c8.61,0,34-1,45.6-1.6V721l-45.79,1.6v8.8h63.39s-2.6,12.4-4.8,24.8c-2,11.8-3.8,23-3.8,23H819.29s.8-36.8.8-71.4c0-34-.8-65.8-.8-65.8h117s1.8,14,3.2,23c1.4,10,4,26,4,26Z" transform="translate(-118.89 58.78)"/><path class="cls-4" d="M1061.88,779.22H955.49s.8-37,.8-72c0-33.6-.8-65.2-.8-65.2h62.19s-1.4,60-.8,90c33.4.4,51.4-.6,51.4-.6C1066.28,743.62,1063.68,763.62,1061.88,779.22Z" transform="translate(-118.89 58.78)"/><path class="cls-4" d="M1178.88,728s8.8,13.2,16.6,23.2c11.2,14.4,23.4,28,23.4,28h-57.4s-5-5.2-10.4-12.2c-6.2-8.2-14.4-19.8-14.4-19.8l1.2,32h-60.2s.8-36.6.8-70.6c0-30.8-.8-66.6-.8-66.6h61l-1.4,60.4,25.6-60.4h63.2Z" transform="translate(-118.89 58.78)"/><path class="cls-4" d="M1289.68,784.22c-42.2,0-71.8-33.6-71.8-74.2,0-42.2,36.8-73.2,74.2-73.2,37.2,0,71.6,29.4,71.6,72.8C1363.68,755.42,1327.08,784.22,1289.68,784.22Zm1.8-92.2c-10.8,0-17.6,8.4-17.6,18.2s6.6,19.2,17.4,19.2c9.6,0,17.4-9.6,17.4-19C1308.48,700.42,1300.68,692,1291.48,692Z" transform="translate(-118.89 58.78)"/><path class="cls-4" d="M1480.08,779.22l-3.2-31.4-25.8,39.2-25.8-38.6-3.4,30.8h-54s4.6-45,7-73.8c2.6-31.6,3.8-63.4,3.8-63.4h45.2l27.4,42.6s6.6-13.4,27.2-42.6h43.6s2.6,39.6,5.4,65.6c3,28.8,8,71.6,8,71.6Z" transform="translate(-118.89 58.78)"/></g></g></svg>