<?xml version="1.0" encoding="utf-8"?>
<!-- Generator: Adobe Illustrator 24.1.0, SVG Export Plug-In . SVG Version: 6.00 Build 0)  -->
<svg version="1.1" id="Laag_1" xmlns="http://www.w3.org/2000/svg" xmlns:xlink="http://www.w3.org/1999/xlink" x="0px" y="0px"
	 viewBox="0 0 1920 1080" style="enable-background:new 0 0 1920 1080;" xml:space="preserve">
<style type="text/css">
	.st0{clip-path:url(#SVGID_2_);}
	.st1{fill:#FFFFFF;}
	.st2{clip-path:url(#SVGID_4_);}
	.st3{fill:#E5666A;}
	.st4{fill:#4EB9AF;}
	.st5{fill:#EDB6BD;}
	.st6{enable-background:new    ;}
</style>
<g>
	<defs>
		<rect id="SVGID_1_" x="550" y="321" width="535" height="530"/>
	</defs>
	<clipPath id="SVGID_2_">
		<use xlink:href="#SVGID_1_"  style="overflow:visible;"/>
	</clipPath>
	<g id="AllDay" transform="translate(10 10)" class="st0">
		<g id="Biertje">
			<g transform="matrix(1, 0, 0, 1, -10, -10)">
				<rect id="Rectangle_3-4" x="552.29" y="320.29" class="st1" width="535" height="535"/>
			</g>
		</g>
		<g>
			<g>
				<defs>
					<rect id="SVGID_3_" x="542.29" y="310.29" width="535" height="534"/>
				</defs>
				<clipPath id="SVGID_4_">
					<use xlink:href="#SVGID_3_"  style="overflow:visible;"/>
				</clipPath>
				<g id="Group_130" transform="translate(0)" class="st2">
					<rect id="Rectangle_31" x="542.29" y="310.29" class="st3" width="535" height="534"/>
					<path id="Path_81" class="st4" d="M620.59,621.49"/>
					<g id="Group_129" transform="translate(-58.027 -32.522)">
						<path id="Path_82" class="st5" d="M793.15,310.29c-9.28,19.46-20.71,37.81-34.08,54.73c-36.18,45.71-57.56,43.69-94.61,86.25
							c-30.9,35.49-24.84,47.01-61.14,91.39c-18.21,22.23-38.66,42.52-61.03,60.55c24.79-6.42,61.02-19.19,95.78-47.03
							c33.14-26.55,50.29-55.04,56.64-65.01c26.14-41.04,80.79-100.11,207.24-176.61L793.15,310.29z"/>
						<path id="Path_83" class="st5" d="M588.35,746.41c13.32-19.86,29.35-37.75,47.62-53.17c13.55-11.32,28.21-21.24,43.76-29.61
							c48.94-27.75,57.83-62.31,111.99-119.07c64.3-67.39,88.09-56.73,127.44-112.64c25.91-36.8,38.12-73.41,44.41-99.12
							c-40.28,40.46-84.24,77.09-131.3,109.42c-65.93,45.14-103.58,57.9-160.26,105.56c-34.37,28.93-65.26,61.76-92.04,97.83
							C582.77,679.21,585.56,712.81,588.35,746.41z"/>
						<path id="Path_84" class="st5" d="M1133.03,348.24c-21.11,13.2-35.69,26.41-44.79,35.59c-32.2,32.48-37.7,55.43-75.19,91.5
							c-42.76,41.14-56.84,26.1-102.37,66.13c-46.45,40.84-42.45,65.86-82.54,105.83c-23.64,23.57-62.26,52-126.74,69.02
							c124.65-5.77,183.29-43.47,213.62-79.31c18-21.27,39.94-58.33,88.96-81.94c22.6-10.88,41.55-8.27,71.3-23.61
							c26.92-13.88,45.74-31.72,57.75-45.14C1133.03,440.29,1133.03,394.27,1133.03,348.24z"/>
						<path id="Path_85" class="st5" d="M764.04,880.29c3.57-6.85,7.5-13.5,11.78-19.93c45.43-68.4,101.43-68.9,172.13-119.59
							c53.38-38.27,38.68-50.34,119.58-119.58c29.03-24.85,59.59-47.84,91.5-68.85c-40,11.72-78.36,28.46-114.15,49.83
							c-103.76,62.03-101.39,113.5-191.07,150.56c-51.29,21.19-85.57,18.2-122.38,56c-22.96,23.58-34.4,50.2-40.51,69.31
							L764.04,880.29z"/>
						<path id="Path_86_1_" class="st5" d="M1001.11,873.52c13.65-17.56,31.9-40.02,64.12-55.55c25.54-12.3,36.6-9.05,59.7-19.77
							c1.8-0.84,3.57-1.73,3.57-1.73c1.76-0.88,3.28-1.7,4.52-2.39c0.49-58.79,0.79-116.83,0.01-116.81c0,0-0.01,0-0.01,0.01
							c-30.43,29.85-31.44,46.28-60.2,73.95c-35.8,34.44-47.58,21.85-85.7,55.36c-9.09,7.99-15.87,15.26-21.36,22.14
							c-8.12,10.18-19.2,24.79-29.3,44.79"/>
					</g>
				</g>
			</g>
		</g>
		<g class="st6">
			<path class="st1" d="M690.33,512.2l-2.34-6.18l-4.26,7.95h-0.35l-4.33-7.95l-2.2,6.25l-19.74-4.26c0,0,7.31-16.05,12.35-25.99
				c5.68-11.22,14.2-26.34,14.2-26.34h0.5c0,0,8.73,15.41,14.06,26.34c4.9,10.08,12.28,25.92,12.28,25.92L690.33,512.2z
				 M683.51,493.67l-3.05,8.38c1.77,0,4.47,0,6.25,0L683.51,493.67z"/>
			<path class="st1" d="M751.32,509.29h-37.77c0,0,0.28-13.13,0.28-25.56c0-11.93-0.28-23.15-0.28-23.15h22.08
				c0,0-0.5,21.3-0.28,31.95c11.86,0.14,18.25-0.21,18.25-0.21C752.88,496.65,751.96,503.75,751.32,509.29z"/>
			<path class="st1" d="M794.7,509.29h-37.77c0,0,0.28-13.13,0.28-25.56c0-11.93-0.28-23.15-0.28-23.15h22.08
				c0,0-0.5,21.3-0.28,31.95c11.86,0.14,18.25-0.21,18.25-0.21C796.26,496.65,795.34,503.75,794.7,509.29z"/>
			<path class="st1" d="M834.95,510.28c-8.59,0-20.45-0.99-20.45-0.99s0.28-13.06,0.28-24.28c0-13.21-0.28-24.42-0.28-24.42
				s9.44-0.85,16.97-0.85c20.94,0,32.66,8.73,32.66,25.7C864.13,502.54,850.86,510.28,834.95,510.28z M835.59,479.9l0.21,11.71
				c2.2,0.07,7.38-0.5,7.38-6.04S838.86,479.75,835.59,479.9z"/>
			<path class="st1" d="M895.16,509.29l-1.63-3.83l-5.11,4.33h-0.14l-4.76-4.33l-1.21,3.83h-20.16c0,0,5.89-15.62,10.01-27.9
				c3.12-9.44,6.53-20.8,6.53-20.8h19.95c0,0,3.19,10.29,7.1,21.65c4.19,12.28,9.8,27.05,9.8,27.05H895.16z M888.35,491.04
				l-4.05,11.36h8.24L888.35,491.04z"/>
			<path class="st1" d="M954.38,475.92l-8.02,16.54l0.35,16.83h-22.36c0-0.07,0.35-16.47,0.35-16.47l-7.53-15.76l-8.24-16.47h23.43
				l3.62,9.94l3.98-9.94h22.15L954.38,475.92z"/>
		</g>
		<g class="st6">
			<path class="st1" d="M772.03,590.67c-8.19,0-14.95-6.43-14.95-15.08c-0.04-8.78,6.55-14.45,14.95-14.45
				c7.94,0,14.7,5.96,14.7,14.45C786.69,584.45,780.52,590.67,772.03,590.67z M771.99,571.64c-1.93,0-3.61,1.72-3.61,4.08
				c0,2.18,1.76,3.86,3.61,3.86c1.89,0,3.44-1.64,3.44-3.86C775.43,573.36,773.96,571.64,771.99,571.64z"/>
			<path class="st1" d="M792.15,595.92c0,0-1.51-1.51-1.81-1.76c0.67-0.42,2.56-2.27,3.02-3.28c-0.21,0.04-0.63,0.13-0.84,0.13
				c-2.31,0-4.5-1.13-4.5-3.78c0-2.69,2.81-4.12,5.17-4.12c2.31,0,4.96,1.34,4.96,4.33C798.15,591.3,794.62,594.41,792.15,595.92z"
				/>
			<path class="st1" d="M814.32,590.67c-8.19,0-14.95-6.43-14.95-15.08c-0.04-8.78,6.55-14.45,14.95-14.45
				c7.94,0,14.7,5.96,14.7,14.45C828.98,584.45,822.81,590.67,814.32,590.67z M814.28,571.64c-1.93,0-3.61,1.72-3.61,4.08
				c0,2.18,1.76,3.86,3.61,3.86c1.89,0,3.44-1.64,3.44-3.86C817.73,573.36,816.26,571.64,814.28,571.64z"/>
			<path class="st1" d="M838.43,576.13c-4.33,0-7.85-3.23-7.85-7.65c-0.04-4.5,3.7-7.27,8.19-7.31c4.24,0,7.56,2.9,7.56,7.23
				C846.33,572.94,842.97,576.13,838.43,576.13z M838.56,591.34l-2.94-2.1l19.37-27.89l2.98,2.23L838.56,591.34z M838.47,566.93
				c-0.84,0-1.51,0.67-1.51,1.51c0,0.8,0.71,1.39,1.51,1.39c0.8,0,1.55-0.59,1.55-1.43C840.02,567.56,839.31,566.93,838.47,566.93z
				 M855.78,590.63c-4.33,0-7.86-3.23-7.86-7.65c-0.04-4.49,3.7-7.27,8.19-7.31c4.24,0,7.56,2.9,7.56,7.22
				C863.68,587.43,860.32,590.63,855.78,590.63z M855.82,581.43c-0.84,0-1.51,0.67-1.51,1.51c0,0.8,0.71,1.39,1.51,1.39
				s1.55-0.59,1.55-1.43C857.38,582.06,856.66,581.43,855.82,581.43z"/>
		</g>
		<g class="st6">
			<path class="st1" d="M714.09,661.64h17.6l-14.75,11.05l7.1,18.65l-16.75-12.55l-16.75,12.55l7.1-18.65l-14.75-11.05h17.55
				l6.85-18.5L714.09,661.64z"/>
			<path class="st1" d="M764.09,661.64h17.6l-14.75,11.05l7.1,18.65l-16.75-12.55l-16.75,12.55l7.1-18.65l-14.75-11.05h17.55
				l6.85-18.5L764.09,661.64z"/>
			<path class="st1" d="M814.09,661.64h17.6l-14.75,11.05l7.1,18.65l-16.75-12.55l-16.75,12.55l7.1-18.65l-14.75-11.05h17.55
				l6.85-18.5L814.09,661.64z"/>
			<path class="st1" d="M864.09,661.64h17.6l-14.75,11.05l7.1,18.65l-16.75-12.55l-16.75,12.55l7.1-18.65l-14.75-11.05h17.55
				l6.85-18.5L864.09,661.64z"/>
			<path class="st1" d="M914.09,661.64h17.6l-14.75,11.05l7.1,18.65l-16.75-12.55l-16.75,12.55l7.1-18.65l-14.75-11.05h17.55
				l6.85-18.5L914.09,661.64z"/>
		</g>
	</g>
</g>
</svg>
