<svg xmlns="http://www.w3.org/2000/svg" xmlns:xlink="http://www.w3.org/1999/xlink" width="428" height="428" viewBox="0 0 428 428">
  <defs>
    <filter id="Rectangle_3" x="0" y="0" width="428" height="428" filterUnits="userSpaceOnUse">
      <feOffset dx="5" dy="5" input="SourceAlpha"/>
      <feGaussianBlur stdDeviation="5" result="blur"/>
      <feFlood flood-opacity="0.373"/>
      <feComposite operator="in" in2="blur"/>
      <feComposite in="SourceGraphic"/>
    </filter>
    <clipPath id="clip-path">
      <rect id="Rectangle_28" data-name="Rectangle 28" width="398" height="398" transform="translate(0)" fill="none"/>
    </clipPath>
  </defs>
  <g id="Arcade" transform="translate(10 10)">
    <g id="Biertje">
      <g transform="matrix(1, 0, 0, 1, -10, -10)" filter="url(#Rectangle_3)">
        <rect id="Rectangle_3-2" data-name="Rectangle 3" width="398" height="398" transform="translate(10 10)" fill="#fff"/>
      </g>
    </g>
    <g id="Group_125" data-name="Group 125">
      <g id="Group_124" data-name="Group 124" transform="translate(0)" clip-path="url(#clip-path)">
        <rect id="Rectangle_27" data-name="Rectangle 27" width="398" height="398" transform="translate(0)" fill="#559832"/>
        <path id="Path_69" data-name="Path 69" d="M188.6,316.16" transform="translate(-130.164 -84.459)" fill="#4eb9af"/>
        <g id="Group_123" data-name="Group 123" transform="translate(-43.055 -24.188)">
          <path id="Path_70" data-name="Path 70" d="M315.024,164.028a215.022,215.022,0,0,1-25.373,40.744C262.715,238.8,246.8,237.3,219.212,268.98c-23.005,26.421-18.49,35-45.521,68.041a310.1,310.1,0,0,1-45.43,45.077c18.455-4.78,45.425-14.287,71.3-35.013a185.989,185.989,0,0,0,42.167-48.4c19.461-30.552,60.146-74.53,154.282-131.484Z" transform="translate(-128.262 -164.028)" fill="#85ba39"/>
          <path id="Path_71" data-name="Path 71" d="M151.176,481.914a191.128,191.128,0,0,1,35.454-39.586,194.377,194.377,0,0,1,32.582-22.041c36.436-20.662,43.051-46.388,83.374-88.646,47.872-50.168,65.579-42.236,94.875-83.854A217.506,217.506,0,0,0,430.524,174a685.4,685.4,0,0,1-97.751,81.457c-49.085,33.607-77.112,43.109-119.311,78.584a431.252,431.252,0,0,0-68.521,72.833Q148.058,444.391,151.176,481.914Z" transform="translate(-116.886 -157.23)" fill="#85ba39"/>
          <path id="Path_72" data-name="Path 72" d="M539.321,174a242.11,242.11,0,0,0-52.649,37.983C457.2,240.037,457.02,254.77,430.693,280.1c-31.834,30.63-42.316,19.432-76.212,49.235-34.577,30.4-31.6,49.029-61.446,78.788-17.6,17.547-46.352,38.712-94.351,51.381,92.8-4.293,136.457-32.364,159.039-59.047,13.4-15.835,29.735-43.421,66.228-61,22.711-10.943,32.545-8.047,53.085-17.581,19.868-9.223,46.02-28.345,68.521-72.832Q542.439,211.517,539.321,174Z" transform="translate(-80.233 -157.23)" fill="#85ba39"/>
          <path id="Path_73" data-name="Path 73" d="M248.482,515.311a163.581,163.581,0,0,1,8.767-14.837c33.82-50.923,75.513-51.292,128.147-89.028,39.743-28.5,28.795-37.479,89.026-89.028a678.308,678.308,0,0,1,68.12-51.258,367.431,367.431,0,0,0-84.981,37.1c-77.25,46.18-75.486,84.5-142.25,112.085-38.185,15.777-63.705,13.547-91.11,41.689-17.1,17.557-25.614,37.373-30.157,51.6Z" transform="translate(-83.398 -90.962)" fill="#85ba39"/>
          <path id="Path_74" data-name="Path 74" d="M532.772,306.382a202.634,202.634,0,0,0-44.076,31.8c-24.669,23.488-24.825,35.822-46.865,57.027-26.65,25.642-35.425,16.269-63.8,41.218-28.946,25.451-26.457,41.045-51.44,65.957-14.733,14.691-38.8,32.409-78.988,43.014C325.288,541.8,361.84,518.3,380.744,495.964c11.217-13.256,24.892-36.35,55.441-51.07,19.014-9.16,27.247-6.735,44.442-14.718,16.634-7.72,38.527-23.728,57.362-60.972Z" transform="translate(-46.869 -66.939)" fill="#85ba39"/>
        </g>
      </g>
    </g>
    <text id="Arcade-2" data-name="Arcade" transform="translate(199 148)" fill="#fff" font-size="53" font-family="PosterBlack-Regular, PosterBlack"><tspan x="-115.514" y="0">Arcade</tspan></text>
    <text id="_5_2_" data-name="5,2%" transform="translate(200 209)" fill="#fff" font-size="32" font-family="PosterBlack-Regular, PosterBlack"><tspan x="-37.504" y="0">5,2%</tspan></text>
    <text id="_" data-name="★★☆☆☆" transform="translate(104 280)" fill="#fff" font-size="38" font-family="PingFangSC-Semibold, PingFang SC" font-weight="600"><tspan x="0" y="0">★★☆☆☆</tspan></text>
  </g>
</svg>
